<?xml version="1.0" encoding="utf-8"?>
<!-- Generator: Adobe Illustrator 21.1.0, SVG Export Plug-In . SVG Version: 6.00 Build 0)  -->
<svg version="1.1" id="Layer_1" xmlns="http://www.w3.org/2000/svg" xmlns:xlink="http://www.w3.org/1999/xlink" x="0px" y="0px"
	 viewBox="0 0 42.5 66.2" style="enable-background:new 0 0 42.5 66.2;" xml:space="preserve">
<style type="text/css">
	.st0{fill:#00CC66;stroke:#000000;stroke-width:0.95;stroke-miterlimit:10;}
	.st1{fill:#FFFFFF;}
	.st2{fill:#00CC66;stroke:#000000;stroke-width:0.24;stroke-miterlimit:10;}
</style>
<g>
	<path class="st0" d="M21.8,62.1c-3.4-6-6.7-11.7-9.8-17.5C9,39,6.4,33.1,4.4,27C1.1,16.7,8.2,5.5,19,3.9C28.9,2.3,38.2,8.9,40,18.8
		c0.5,3.4,0.1,6.8-1.2,10c-3.2,8.3-7,16.3-11.6,23.9C25.6,55.8,23.8,58.8,21.8,62.1z M35.1,22.4c0-7.3-5.8-13.2-13.1-13.2
		C14.7,9.2,8.8,15,8.7,22.3s5.8,13.2,13.1,13.2c0,0,0,0,0,0c7.2,0,13.1-5.8,13.2-13C35.1,22.5,35.1,22.4,35.1,22.4z"/>
	<path class="st1" d="M35.1,22.4c-0.1,7.3-6,13.1-13.3,13.1c-7.3-0.1-13.1-6-13.1-13.3c0.1-7.2,6-13.1,13.2-13.1
		c7.2,0,13.1,5.8,13.1,13C35.1,22.2,35.1,22.3,35.1,22.4z M12.7,26.8c1.2,0.1,1.5,0.7,1.4,1.7c-0.1,1,0.5,1.4,1.5,1.4
		c1.1,0,1.6-0.3,1.5-1.6c0-1.3,0.5-1.4,1.5-1.4c2.3,0.1,4.7,0.1,7.1,0c1.2,0,1.7,0.4,1.6,1.6c-0.1,0.6,0.3,1.2,0.9,1.3
		c0.1,0,0.2,0,0.2,0c1.3,0.2,1.8-0.2,1.8-1.5c0-0.7-0.1-1.4,1-1.5c0.2,0,0.5-0.5,0.5-0.8c0-1.4,0.1-2.8,0-4.2c0-0.5-0.2-1.3-0.6-1.5
		c-1-0.6-1.6-1.7-1.6-2.8c0-1.2-0.9-2.3-2.1-2.4c-3.4-0.8-7-0.8-10.5,0c-1.1,0.2-1.9,1.1-2,2.2c-0.2,1.2-0.3,2.4-1.6,3
		c-0.3,0.2-0.5,0.8-0.5,1.3C12.6,23.3,12.7,25,12.7,26.8z"/>
	<path class="st2" d="M12.7,26.8c0-1.8,0-3.5,0-5.2c0-0.4,0.2-1.1,0.5-1.3c1.3-0.6,1.5-1.9,1.6-3c0.1-1.1,0.9-2,2-2.2
		c3.4-0.8,7-0.8,10.5,0c1.2,0.2,2.1,1.2,2.1,2.4c0,1.2,0.6,2.2,1.6,2.8c0.4,0.2,0.6,1,0.6,1.5c0.1,1.4,0.1,2.8,0,4.2
		c0,0.3-0.3,0.8-0.5,0.8c-1,0.1-0.9,0.8-1,1.5c0,1.3-0.5,1.7-1.8,1.5c-0.6,0-1.2-0.5-1.2-1.1c0-0.1,0-0.2,0-0.2
		c0.1-1.2-0.4-1.6-1.6-1.6c-2.3,0.1-4.7,0.1-7.1,0c-1,0-1.5,0.2-1.5,1.4c0,1.2-0.4,1.6-1.5,1.6c-0.9,0-1.6-0.4-1.5-1.4
		C14.1,27.5,13.8,26.8,12.7,26.8z M22.1,19.8h5.6c0,0,0.1,0,0.1,0c0.3-0.2,1-0.4,1-0.6c0.2-1.7-0.9-3.2-2.6-3.5c0,0-0.1,0-0.1,0
		c-2.5-0.1-5.1-0.1-7.6,0c-2.1,0.1-2.6,0.7-2.9,2.9c-0.1,0.9,0.1,1.3,1.1,1.3C18.5,19.8,20.3,19.8,22.1,19.8L22.1,19.8z M22.1,24
		c1.1,0,2.1,0,3.2,0c0.7,0,1.1-0.2,1.1-1c0-0.8,0-1.4-1-1.4c-2.2,0-4.5,0-6.7,0c-0.9,0-1,0.6-1,1.3s0.2,1.2,1,1.1
		C19.8,24,20.9,24,22.1,24L22.1,24z M17.2,23c0-0.9-0.7-1.6-1.6-1.6c-0.8,0-1.5,0.7-1.5,1.6c0,0.9,0.7,1.5,1.5,1.5
		C16.5,24.5,17.2,23.8,17.2,23L17.2,23z M30,23c0-0.9-0.7-1.6-1.6-1.6c0,0,0,0,0,0c-0.9,0-1.5,0.7-1.5,1.6c0,0.9,0.7,1.5,1.6,1.5
		C29.3,24.5,30,23.8,30,23L30,23z"/>
	<path class="st1" d="M22.1,19.8c-1.8,0-3.6,0-5.5,0c-0.9,0-1.2-0.4-1.1-1.3c0.3-2.2,0.8-2.8,2.9-2.9c2.5-0.1,5.1-0.1,7.6,0
		c1.7,0.2,2.9,1.7,2.7,3.3c0,0.1,0,0.1,0,0.2c0,0.3-0.7,0.4-1,0.6c0,0-0.1,0-0.1,0L22.1,19.8z"/>
	<path class="st1" d="M22.1,24c-1.1,0-2.3,0-3.4,0c-0.8,0-1-0.4-1-1.1s0.1-1.3,1-1.3c2.2,0,4.5,0,6.7,0c1,0,1,0.7,1,1.4
		s-0.3,1.1-1.1,1C24.2,24,23.1,24,22.1,24z"/>
	<path class="st1" d="M17.2,22.9c0,0.9-0.7,1.5-1.5,1.5s-1.5-0.7-1.5-1.5c0-0.8,0.6-1.5,1.5-1.6C16.5,21.4,17.2,22.1,17.2,22.9z"/>
	<path class="st1" d="M30,22.9c0,0.8-0.7,1.5-1.5,1.5c-0.9,0-1.6-0.6-1.6-1.5c0-0.9,0.6-1.6,1.5-1.6C29.2,21.4,29.9,22.1,30,22.9
		C30,22.9,30,22.9,30,22.9z"/>
</g>
</svg>
