<?xml version="1.0" encoding="utf-8"?>
<!-- Generator: Adobe Illustrator 21.1.0, SVG Export Plug-In . SVG Version: 6.00 Build 0)  -->
<svg version="1.1" id="Layer_1" xmlns="http://www.w3.org/2000/svg" xmlns:xlink="http://www.w3.org/1999/xlink" x="0px" y="0px"
	 viewBox="0 0 42.5 64.8" style="enable-background:new 0 0 42.5 64.8;" xml:space="preserve">
<style type="text/css">
	.st0{fill:#E81A50;stroke:#000000;stroke-width:0.97;stroke-miterlimit:10;}
	.st1{fill:#FFFFFF;}
	.st2{fill:#E81A50;stroke:#000000;stroke-width:0.24;stroke-miterlimit:10;}
</style>
<g>
	<path class="st0" d="M21.4,61.8c-1.7-2.9-3.4-5.6-4.9-8.3c-3.4-6.4-6.9-12.8-10-19.4C4.9,30.8,3.8,27.3,3,23.8
		C1.7,18,3.6,12.8,7.6,8.5c7-7.8,19.3-7.7,26-1.5C38.1,11,40.5,16,40,22c-0.4,3-1.2,6-2.4,8.8c-3.9,9.3-8.5,18.2-13.7,26.8
		L21.4,61.8z M21.4,8.1C14,8.1,8,14,8,21.4s5.9,13.4,13.3,13.5c7.4,0,13.4-5.9,13.5-13.3c0,0,0-0.1,0-0.1
		C34.7,14.1,28.8,8.1,21.4,8.1L21.4,8.1z"/>
	<path class="st1" d="M21.4,8.1c7.3,0.1,13.2,6,13.3,13.4c0,7.4-6,13.4-13.4,13.4C14,34.8,8,28.8,8,21.4C8,14.1,14,8.1,21.4,8.1
		C21.4,8.1,21.4,8.1,21.4,8.1z M21.6,21.6c-1.7,0-3.3,0-5,0c-1.8-0.1-3.3,1.2-3.4,2.9c0,0.1,0,0.2,0,0.3c-0.1,0.8-0.1,1.5,0,2.3
		c0.1,0.9,0.4,1.7,0.9,2.5c4.2,4,10.7,4,15,0.1c0.6-0.7,0.9-1.6,1-2.5c0.1-0.6,0.1-1.1,0-1.7c0-2.5-1.3-3.8-3.8-3.8
		C24.8,21.6,23.2,21.6,21.6,21.6L21.6,21.6z M17.2,16.2c-0.1,2.4,1.8,4.4,4.2,4.5c0.1,0,0.1,0,0.2,0c2.5,0,4.5-2,4.5-4.4
		c0-2.5-2-4.5-4.4-4.5C19.2,11.8,17.2,13.7,17.2,16.2C17.2,16.2,17.2,16.2,17.2,16.2z"/>
	<path class="st2" d="M21.6,21.6c1.6,0,3.2,0,4.7,0c2.5,0,3.8,1.3,3.8,3.8c0.1,0.6,0.1,1.1,0,1.7c-0.1,0.9-0.5,1.8-1,2.5
		c-4.2,3.9-10.8,3.9-15-0.1c-0.5-0.7-0.8-1.6-0.9-2.5c-0.1-0.8-0.1-1.5,0-2.3c0-1.8,1.4-3.2,3.1-3.2c0.1,0,0.2,0,0.3,0
		C18.3,21.6,20,21.6,21.6,21.6z"/>
	<path class="st2" d="M17.2,16.2c0-2.5,2-4.4,4.5-4.4c2.5,0,4.4,2,4.4,4.5c0,2.5-2,4.4-4.5,4.4c-2.4,0-4.4-1.9-4.4-4.3
		C17.2,16.4,17.2,16.3,17.2,16.2z"/>
</g>
</svg>
