<?xml version="1.0" encoding="utf-8"?>
<!-- Generator: Adobe Illustrator 21.1.0, SVG Export Plug-In . SVG Version: 6.00 Build 0)  -->
<svg version="1.1" id="_x31_1a7a70b-eab5-455c-be0b-ad132d57f6f4"
	 xmlns="http://www.w3.org/2000/svg" xmlns:xlink="http://www.w3.org/1999/xlink" x="0px" y="0px" viewBox="0 0 43.9 67"
	 style="enable-background:new 0 0 43.9 67;" xml:space="preserve">
<style type="text/css">
	.st0{fill:#0066CC;stroke:#000000;stroke-width:0.94;stroke-miterlimit:10;}
	.st1{fill:#FFFFFF;}
	.st2{fill:#0066CC;stroke:#000000;stroke-width:0.24;stroke-miterlimit:10;}
</style>
<g>
	<path class="st0" d="M22.3,61.9c-1.7-2.9-3.3-5.5-4.8-8.2C14.3,47.5,11,41.3,7.8,35c-1.7-3.3-2.9-6.8-3.5-10.4
		C3.4,18.9,5.1,14.2,8.9,10c6.9-7.6,18.8-7.4,25.4-1.5c4.3,3.9,6.7,8.8,6.2,14.6c-0.3,3-1.1,5.9-2.3,8.6
		c-3.8,9.1-8.3,17.8-13.4,26.2L22.3,61.9z M35.3,23.4c0.5-7.1-4.8-13.2-11.9-13.7c-0.1,0-0.2,0-0.3,0C15.9,9.3,9.8,14.8,9.4,22
		C9,29.1,14.5,35.2,21.7,35.6C28.5,36.2,34.6,30.7,35.3,23.4L35.3,23.4z"/>
	<path class="st1" d="M35.2,23.4c-0.6,7.3-6.8,12.7-13.5,12.2C14.5,35.2,9,29.1,9.4,22c0.4-7.2,6.5-12.7,13.7-12.3l0,0
		C30.1,10,35.6,16,35.3,23.1C35.3,23.2,35.2,23.3,35.2,23.4z M22.6,22.8c-1.6,0-3.2,0-4.8,0c-1.7-0.2-3.2,1.1-3.4,2.8
		c0,0.1,0,0.2,0,0.3c-0.1,0.7-0.1,1.5,0,2.2c0.1,0.9,0.4,1.7,0.9,2.4c4.1,3.8,10.5,3.9,14.6,0.1c0.5-0.7,0.9-1.6,1-2.5
		c0.1-0.6,0.1-1.1,0-1.7c0-2.4-1.2-3.7-3.6-3.7C25.6,22.8,24.1,22.8,22.6,22.8z M18.3,17.6c0,2.3,1.8,4.3,4.2,4.3c0.1,0,0.1,0,0.2,0
		c2.4,0,4.3-2,4.3-4.4s-2-4.3-4.4-4.3S18.2,15.2,18.3,17.6C18.3,17.6,18.3,17.6,18.3,17.6z"/>
	<path class="st2" d="M22.6,22.8c1.5,0,3.1,0,4.6,0c2.4,0,3.6,1.3,3.6,3.7c0.1,0.6,0.1,1.1,0,1.7c-0.1,0.9-0.5,1.7-1,2.5
		c-4.1,3.8-10.5,3.8-14.6-0.1c-0.5-0.7-0.8-1.5-0.9-2.4c-0.1-0.7-0.1-1.5,0-2.2c0-1.7,1.3-3.1,3.1-3.1c0.1,0,0.2,0,0.3,0
		C19.3,22.8,21,22.8,22.6,22.8z"/>
	<path class="st2" d="M18.2,17.6c0-2.4,1.9-4.3,4.3-4.3s4.3,1.9,4.3,4.3c0,2.4-1.9,4.3-4.3,4.3c-2.4,0-4.3-1.8-4.4-4.2
		C18.2,17.7,18.2,17.6,18.2,17.6z"/>
</g>
</svg>
